# xmcd CD database file
# Copyright (C) 1993-1998 Ti Kan
#
# Track frame offsets:
#	182
#	22292
#	43027
#	57457
#	84052
#	101185
#	118880
#	135762
#	152530
#	164707
#	180562
#	195395
#	204340
#	218807
#
# Disc length: 3273 seconds
#
# Revision: 1
# Processed by: cddbd v1.4b41PL1 Copyright (c) Steve Scherf et al.
# Submitted via: NotifyCDPlayer(CDDB) 1.50
#
DISCID=be0cc70e
DTITLE=Bob Brozman and His Thieves of Sleep - Blues 'Round the Bend
DYEAR=1900
DGENRE=
TTITLE0=Green River Blues
TTITLE1=Dream About My Gal
TTITLE2=Obvious Blues
TTITLE3=Black Stone Blues
TTITLE4=Devil Got My Woman
TTITLE5=Poor But Ambitious
TTITLE6=Music For Slow Surfers
TTITLE7=Bird Nest Bound
TTITLE8=Oua, Oua--A Hawaiian Chant
TTITLE9=Pony Blues
TTITLE10=Ancient Hula Alpa (Blues)
TTITLE11=Bandsman Shooting Incident
TTITLE12=Screamin' Sea Blues
TTITLE13=East
EXTD=
EXTT0=
EXTT1=
EXTT2=
EXTT3=
EXTT4=
EXTT5=
EXTT6=
EXTT7=
EXTT8=
EXTT9=
EXTT10=
EXTT11=
EXTT12=
EXTT13=
PLAYORDER=
